<?xml version="1.0" ?><!DOCTYPE svg  PUBLIC '-//W3C//DTD SVG 1.1//EN'  'http://www.w3.org/Graphics/SVG/1.1/DTD/svg11.dtd'><svg height="1.70667in" style="shape-rendering:geometricPrecision; text-rendering:geometricPrecision; image-rendering:optimizeQuality; fill-rule:evenodd; clip-rule:evenodd" version="1.1" viewBox="0 0 11878 11878" width="1.70667in" xml:space="preserve" xmlns="http://www.w3.org/2000/svg" xmlns:xlink="http://www.w3.org/1999/xlink"><defs><style type="text/css">
   <![CDATA[
    .fil0 {fill:none}
    .fil1 {fill:black;fill-rule:nonzero}
   ]]>
  </style></defs><g id="Layer_x0020_1"><rect class="fil0" height="11878" width="11878"/><g id="_644646448"><path class="fil1" d="M5132 7733c164,-34 307,-98 427,-190 107,-81 197,-180 269,-298 112,-178 168,-379 168,-604 0,-217 -49,-402 -147,-555 -99,-152 -244,-263 -438,-334 127,-64 224,-136 289,-215 117,-140 175,-326 175,-558 0,-224 -58,-416 -173,-577 -193,-262 -520,-397 -981,-403l-1830 0 0 3785 1706 0c192,0 371,-17 535,-51zm-1486 -3077l0 0 824 0c181,0 330,20 447,59 136,57 203,173 203,349 0,160 -51,270 -154,333 -102,62 -235,94 -400,94l-920 0 0 -835zm0 2471l0 0 0 -1010 932 0c163,2 288,23 378,65 161,73 241,208 241,405 0,233 -83,391 -249,473 -91,44 -219,67 -383,67l-919 0z"/><g><path class="fil1" d="M6637 7535c285,229 614,344 986,344 451,0 803,-136 1053,-408 162,-172 252,-340 272,-506l-748 0c-43,82 -93,146 -150,192 -105,86 -240,129 -407,129 -157,0 -291,-35 -403,-106 -184,-113 -282,-309 -293,-590l2039 0c3,-242 -5,-427 -24,-556 -34,-219 -109,-412 -223,-578 -127,-189 -289,-327 -484,-415 -195,-87 -415,-131 -659,-131 -410,0 -743,130 -1000,389 -257,258 -386,630 -386,1115 0,517 142,891 427,1121zm523 -1861l0 0c104,-107 249,-160 437,-160 173,0 317,50 434,151 117,100 182,248 195,442l-1261 0c27,-182 92,-327 195,-433z"/><polygon class="fil1" points="8371,4216 6726,4216 6726,4598 8371,4598 "/></g></g></g></svg>