<?xml version="1.0" encoding="UTF-8"?>
<svg width="238px" height="238px" viewBox="0 0 238 238" version="1.1" xmlns="http://www.w3.org/2000/svg" xmlns:xlink="http://www.w3.org/1999/xlink">
    <!-- Generator: Sketch 44.1 (41455) - http://www.bohemiancoding.com/sketch -->
    <title>Combined Shape</title>
    <desc>Created with Sketch.</desc>
    <defs></defs>
    <g id="Page-3" stroke="none" stroke-width="1" fill="none" fill-rule="evenodd">
        <g id="A4" transform="translate(-179.000000, -302.000000)" fill="#000000">
            <path d="M336.65282,443.316216 L417,489.704682 L417,510.25 L376.713276,510.25 C355.735563,528.765311 328.179783,540 298,540 C232.278115,540 179,486.721885 179,421 C179,355.278115 232.278115,302 298,302 L417,302 L417,376.375 L382.795345,376.375 L382.795345,376.375 C377.880318,376.375 373.051883,377.668775 368.795345,380.126289 L336.65282,398.683784 C328.936418,385.34739 314.516016,376.375 298,376.375 C273.354293,376.375 253.375,396.354293 253.375,421 C253.375,445.645707 273.354293,465.625 298,465.625 C314.516016,465.625 328.936418,456.65261 336.65282,443.316216 Z" id="Combined-Shape"></path>
        </g>
    </g>
</svg>