<?xml version="1.0" encoding="UTF-8"?>
<svg width="400px" height="400px" viewBox="0 0 400 400" version="1.1" xmlns="http://www.w3.org/2000/svg" xmlns:xlink="http://www.w3.org/1999/xlink">
    <!-- Generator: Sketch 44.1 (41455) - http://www.bohemiancoding.com/sketch -->
    <title>Combined Shape</title>
    <desc>Created with Sketch.</desc>
    <defs></defs>
    <g id="Page-1" stroke="none" stroke-width="1" fill="none" fill-rule="evenodd">
        <g id="Artboard-Copy-35" transform="translate(-196.000000, -200.000000)" fill="#FFFFFF">
            <path d="M460.962722,437.506245 L596,515.470054 L596,550 L528.29122,550 C493.03456,581.118171 446.722324,600 396,600 C285.54305,600 196,510.45695 196,400 C196,289.54305 285.54305,200 396,200 L596,200 L596,325 L533.406388,325 L533.406388,325 C528.491361,325 523.662926,326.293775 519.406388,328.751289 L460.962722,362.493755 C447.99398,340.079647 423.75801,325 396,325 C354.578644,325 321,358.578644 321,400 C321,441.421356 354.578644,475 396,475 C423.75801,475 447.99398,459.920353 460.962722,437.506245 Z" id="Combined-Shape"></path>
        </g>
    </g>
</svg>