<?xml version="1.0" encoding="utf-8"?>
<!-- Generator: Adobe Illustrator 22.0.1, SVG Export Plug-In . SVG Version: 6.00 Build 0)  -->
<svg version="1.1" id="Layer_1" xmlns="http://www.w3.org/2000/svg" xmlns:xlink="http://www.w3.org/1999/xlink" x="0px" y="0px"
	 viewBox="0 0 122.9 122.9" style="enable-background:new 0 0 122.9 122.9;" xml:space="preserve">
<path d="M29.8,61.4c0-5.7,1.4-11,4.2-15.9c2.8-4.9,6.7-8.7,11.5-11.5c4.9-2.8,10.1-4.2,15.9-4.2c5.7,0,11,1.4,15.9,4.2
	c4.9,2.8,8.7,6.7,11.5,11.5c2.8,4.9,4.2,10.1,4.2,15.9s-1.4,11-4.2,15.9C86,82.2,82.2,86,77.3,88.8c-4.9,2.8-10.1,4.2-15.9,4.2
	c-5.7,0-11-1.4-15.9-4.2C40.7,86,36.9,82.2,34,77.3C31.2,72.5,29.8,67.2,29.8,61.4z M35,61.4c0,6.6,2.2,12.4,6.6,17.4
	c2-4,5.2-7.7,9.6-11.3c4.4-3.6,8.7-5.8,12.8-6.8c-0.6-1.5-1.2-2.8-1.8-4c-7.3,2.3-15.1,3.5-23.5,3.5c-1.6,0-2.9,0-3.7-0.1
	c0,0.2,0,0.4,0,0.6C35.1,61.1,35,61.3,35,61.4z M35.9,54.9C36.8,55,38.2,55,40,55c7,0,13.7-0.9,20.1-2.8
	c-3.2-5.7-6.7-10.4-10.6-14.2c-3.3,1.7-6.2,4-8.6,7C38.5,48,36.8,51.3,35.9,54.9z M45.3,82.3c4.8,3.7,10.1,5.6,16.1,5.6
	c3.1,0,6.2-0.6,9.3-1.8c-0.8-7.2-2.5-14.2-4.9-21c-3.9,0.8-7.8,3-11.7,6.4C50.1,74.9,47.2,78.5,45.3,82.3z M55,35.9
	c3.7,3.8,7.2,8.6,10.3,14.4c5.7-2.4,10.1-5.5,13-9.2C73.4,37.1,67.8,35,61.4,35C59.3,35,57.1,35.3,55,35.9z M67.6,54.8
	c0.6,1.4,1.4,3.1,2.2,5.1c3.1-0.3,6.5-0.4,10.2-0.4c2.6,0,5.2,0.1,7.8,0.2c-0.3-5.7-2.4-10.8-6.2-15.3
	C78.8,48.4,74.1,51.9,67.6,54.8z M71.3,64.4c2.2,6.2,3.6,12.7,4.4,19.2c3.3-2.2,6.1-4.9,8.2-8.3c2.1-3.4,3.4-7,3.8-10.9
	c-3.1-0.2-5.9-0.3-8.4-0.3C76.9,64,74.3,64.1,71.3,64.4z"/>
</svg>
