<?xml version="1.0" ?><!DOCTYPE svg  PUBLIC '-//W3C//DTD SVG 1.1//EN'  'http://www.w3.org/Graphics/SVG/1.1/DTD/svg11.dtd'><svg height="1.70667in" style="shape-rendering:geometricPrecision; text-rendering:geometricPrecision; image-rendering:optimizeQuality; fill-rule:evenodd; clip-rule:evenodd" version="1.1" viewBox="0 0 7630 7630" width="1.70667in" xml:space="preserve" xmlns="http://www.w3.org/2000/svg" xmlns:xlink="http://www.w3.org/1999/xlink"><defs><style type="text/css">
   <![CDATA[
    .fil0 {fill:none}
    .fil1 {fill:black;fill-rule:nonzero}
   ]]>
  </style></defs><g id="Layer_x0020_1"><rect class="fil0" height="7630" width="7630"/><g id="_799061112"><g><polygon class="fil1" points="2084,5618 2828,5618 2828,3214 2084,3214 "/><path class="fil1" d="M2453 2899c243,0 440,-199 440,-444 0,-245 -197,-443 -440,-443 -244,0 -441,198 -441,443 0,245 197,444 441,444z"/></g><path class="fil1" d="M4018 4356c0,-338 155,-539 453,-539 274,0 406,193 406,539 0,346 0,1262 0,1262l740 0c0,0 0,-878 0,-1522 0,-644 -365,-956 -875,-956 -509,0 -724,398 -724,398l0 -324 -714 0 0 2404 714 0c0,0 0,-892 0,-1262z"/></g></g></svg>